<svg width="64" height="64" viewBox="0 0 24 24" fill="none" xmlns="http://www.w3.org/2000/svg">
  <title>WarrantyTrack Logo</title>
  <path d="M12 22C17.5228 22 22 17.5228 22 12C22 6.47715 17.5228 2 12 2C6.47715 2 2 6.47715 2 12C2 17.5228 6.47715 22 12 22Z" fill="#eef2ff"/>
  <path d="M9 12H15M9 15H15M17 20H7C5.89543 20 5 19.1046 5 18V6C5 4.89543 5.89543 4 7 4H13L18 9V18C18 19.1046 17.1046 20 16 20H17Z" stroke="#4f46e5" stroke-width="1.5" stroke-linecap="round" stroke-linejoin="round"/>
  <path d="M12 22C17.5228 22 22 17.5228 22 12C22 6.47715 17.5228 2 12 2C6.47715 2 2 6.47715 2 12C2 17.5228 6.47715 22 12 22Z" stroke="#4f46e5" stroke-width="1.5"/>
</svg>
